<svg viewBox="0 0 155 58" xmlns="http://www.w3.org/2000/svg" fill-rule="evenodd" clip-rule="evenodd" stroke-linejoin="round" stroke-miterlimit="1.414">
    <path d="M11.625 17.426c-.3 0-.375-.15-.225-.375l1.575-2.025c.15-.225.525-.375.825-.375h26.775c.3 0 .375.225.225.45l-1.275 1.95c-.15.225-.525.45-.75.45l-27.15-.075zM.3 24.326c-.3 0-.375-.15-.225-.375l1.575-2.025c.15-.225.525-.375.825-.375h34.2c.3 0 .45.225.375.45l-.6 1.8c-.075.3-.375.45-.675.45L.3 24.326zM18.45 31.226c-.3 0-.375-.225-.225-.45l1.05-1.875c.15-.225.45-.45.75-.45h15c.3 0 .45.225.45.525l-.15 1.8c0 .3-.3.525-.525.525l-16.35-.075z" fill="#5dc9e1" fill-rule="nonzero"/>
    <g fill="#5dc9e1" fill-rule="nonzero">
        <path d="M96.3 16.076c-4.725 1.2-7.95 2.1-12.6 3.3-1.125.3-1.2.375-2.175-.75-1.125-1.275-1.95-2.1-3.525-2.85-4.725-2.325-9.3-1.65-13.575 1.125-5.1 3.3-7.725 8.175-7.65 14.25.075 6 4.2 10.95 10.125 11.775 5.1.675 9.375-1.125 12.75-4.95.675-.825 1.275-1.725 2.025-2.775H67.2c-1.575 0-1.95-.975-1.425-2.25.975-2.325 2.775-6.225 3.825-8.175.225-.45.75-1.2 1.875-1.2h27.3c-.15 2.025-.15 4.05-.45 6.075-.825 5.4-2.85 10.35-6.15 14.7-5.4 7.125-12.45 11.55-21.375 12.75-7.35.975-14.175-.45-20.175-4.95-5.55-4.2-8.7-9.75-9.525-16.65-.975-8.175 1.425-15.525 6.375-21.975 5.325-6.975 12.375-11.4 21-12.975 7.05-1.275 13.8-.45 19.875 3.675 3.975 2.625 6.825 6.225 8.7 10.575.45.675.15 1.05-.75 1.275z"/>
        <path d="M121.125 57.551c-6.825-.15-13.05-2.1-18.3-6.6-4.425-3.825-7.2-8.7-8.1-14.475-1.35-8.475.975-15.975 6.075-22.65 5.475-7.2 12.075-10.95 21-12.525 7.65-1.35 14.85-.6 21.375 3.825 5.925 4.05 9.6 9.525 10.575 16.725 1.275 10.125-1.65 18.375-8.625 25.425-4.95 5.025-11.025 8.175-18 9.6-2.025.375-4.05.45-6 .675zm17.85-30.3c-.075-.975-.075-1.725-.225-2.475-1.35-7.425-8.175-11.625-15.3-9.975-6.975 1.575-11.475 6-13.125 13.05-1.35 5.85 1.5 11.775 6.9 14.175 4.125 1.8 8.25 1.575 12.225-.45 5.925-3.075 9.15-7.875 9.525-14.325z"/>
    </g>
</svg>
