<svg viewBox="0 0 489 143" xmlns="http://www.w3.org/2000/svg" fill-rule="evenodd" clip-rule="evenodd" stroke-linejoin="round" stroke-miterlimit="1.414">
    <path d="M186.024 32.757h-12.35v75.172h35.546V96.868h-23.196V32.757zm66.794 31.894c-1.575-2.506-3.812-4.474-6.712-5.906-2.898-1.432-5.817-2.148-8.751-2.148-3.797 0-7.268.698-10.418 2.094-3.15 1.396-5.853 3.313-8.108 5.746-2.255 2.434-4.01 5.244-5.262 8.429-1.254 3.187-1.879 6.535-1.879 10.042 0 3.58.625 6.945 1.879 10.094 1.252 3.151 3.007 5.944 5.262 8.377 2.255 2.434 4.957 4.349 8.108 5.745 3.15 1.395 6.621 2.094 10.418 2.094 2.935 0 5.853-.717 8.751-2.148 2.9-1.431 5.137-3.399 6.712-5.906v6.766h11.706V57.886h-11.706v6.765zm-1.073 24.377c-.716 1.934-1.718 3.616-3.007 5.048-1.289 1.432-2.846 2.578-4.671 3.436-1.827.86-3.85 1.289-6.069 1.289-2.22 0-4.224-.429-6.014-1.289a14.692 14.692 0 0 1-4.617-3.436c-1.289-1.432-2.274-3.114-2.953-5.048-.682-1.932-1.02-3.973-1.02-6.12 0-2.148.338-4.189 1.02-6.122.678-1.933 1.664-3.614 2.953-5.047a14.719 14.719 0 0 1 4.617-3.436c1.79-.86 3.794-1.289 6.014-1.289 2.219 0 4.242.429 6.069 1.289 1.825.859 3.382 2.005 4.671 3.436 1.289 1.433 2.291 3.114 3.007 5.047a17.506 17.506 0 0 1 1.074 6.122c-.001 2.147-.359 4.188-1.074 6.12zm96.221-24.377c-1.576-2.506-3.813-4.474-6.712-5.906-2.899-1.432-5.817-2.148-8.752-2.148-3.796 0-7.267.698-10.417 2.094-3.151 1.396-5.853 3.313-8.109 5.746-2.255 2.434-4.01 5.244-5.262 8.429-1.254 3.187-1.879 6.535-1.879 10.042 0 3.58.625 6.945 1.879 10.094 1.252 3.151 3.007 5.944 5.262 8.377 2.255 2.434 4.957 4.349 8.108 5.745 3.15 1.395 6.621 2.094 10.418 2.094 2.935 0 5.853-.717 8.752-2.148 2.899-1.431 5.137-3.399 6.711-5.906v6.766h11.706V57.886h-11.706v6.765zm-1.075 24.377c-.716 1.934-1.718 3.616-3.006 5.048-1.29 1.432-2.846 2.578-4.672 3.436-1.826.86-3.85 1.289-6.068 1.289-2.22 0-4.225-.429-6.014-1.289a14.67 14.67 0 0 1-4.617-3.436c-1.29-1.432-2.275-3.114-2.954-5.048-.682-1.932-1.02-3.973-1.02-6.12 0-2.148.338-4.189 1.02-6.122.679-1.933 1.664-3.614 2.954-5.047a14.696 14.696 0 0 1 4.617-3.436c1.789-.86 3.794-1.289 6.014-1.289 2.218 0 4.242.429 6.068 1.289 1.825.859 3.382 2.005 4.672 3.436 1.288 1.433 2.29 3.114 3.006 5.047a17.507 17.507 0 0 1 1.075 6.122c0 2.147-.36 4.188-1.075 6.12zm129.484-56.271h11.704v75.172h-11.704V32.757zM273.76 107.929h11.705V69.403h20.082V57.886H273.76v50.043zM406.6 57.886l-14.712 38.322-14.712-38.322H365.32l19.212 50.043h14.711l19.213-50.043H406.6zm37.385-1.287c-14.334 0-25.679 11.78-25.679 26.309 0 16.062 10.981 26.31 27.179 26.31 9.066 0 14.855-3.467 21.926-11.016l-7.908-6.119c-.005.006-5.969 7.837-14.874 7.837-10.352 0-14.709-8.345-14.709-12.663h38.832c2.04-16.532-8.829-30.658-24.767-30.658zm-14.035 21.96c.09-.963 1.438-12.663 13.942-12.663 12.503 0 14.023 11.699 14.11 12.663H429.95zm-291.899-46.39c-.018-.066-.055-.124-.078-.188-.043-.118-.081-.237-.143-.345-.042-.073-.103-.132-.152-.199-.066-.087-.121-.181-.199-.258-.064-.065-.146-.111-.218-.168-.081-.063-.154-.136-.245-.189h-.001l-.002-.002-26.736-15.393a2.233 2.233 0 0 0-2.223 0L81.319 30.819l-.002.001-.001.001c-.091.052-.164.125-.245.189-.072.056-.154.103-.218.167-.077.077-.133.171-.199.259-.049.067-.11.127-.152.199-.062.108-.1.228-.143.345-.023.063-.06.121-.078.187-.05.187-.077.383-.077.582v29.234l-22.28 12.828V17.619c0-.196-.026-.392-.077-.582-.018-.066-.055-.123-.078-.187-.044-.118-.081-.237-.143-.345-.043-.073-.103-.132-.153-.199-.065-.088-.12-.181-.198-.259-.064-.064-.146-.111-.218-.167-.082-.064-.154-.136-.245-.189l-.002-.001-.001-.001L30.074.297a2.228 2.228 0 0 0-2.223 0L1.115 15.689l-.001.001-.002.001c-.09.053-.164.125-.245.189-.072.056-.154.104-.217.167-.078.078-.134.171-.199.259-.05.067-.11.127-.152.199-.063.108-.1.228-.144.345-.023.064-.06.121-.078.187-.05.187-.077.383-.077.582v91.568c0 .797.426 1.533 1.117 1.931l53.47 30.784c.117.067.243.107.367.151.059.021.113.056.173.072.374.099.768.099 1.143 0 .051-.014.099-.045.15-.063.132-.045.265-.089.389-.16l53.47-30.784a2.23 2.23 0 0 0 1.116-1.931V79.953l25.619-14.75a2.23 2.23 0 0 0 1.117-1.931V32.749a2.318 2.318 0 0 0-.08-.58zm-82.36 74.456L33.455 94.041l23.352-13.445.001-.001 25.623-14.751 22.256 12.813-16.329 9.321-32.667 18.647zm51.247-57.194v25.38l-9.356-5.386-12.923-7.44V36.604l9.356 5.387 12.923 7.44zm2.228-29.502l22.269 12.822-22.269 12.821-22.27-12.821 22.27-12.822zM40.545 84.816l-9.356 5.387V34.299l12.923-7.44 9.356-5.386v55.903l-12.923 7.44zM28.961 4.798L51.23 17.619 28.961 30.441 6.691 17.619l22.27-12.821zM4.454 21.474l9.356 5.386 12.923 7.44v59.757l.001.004-.001.004c0 .086.024.166.034.25.013.11.016.221.044.326l.002.005c.024.088.07.166.104.25.039.093.066.192.118.279l.003.006c.045.079.111.144.166.216.061.079.112.165.183.236l.006.007c.063.063.143.107.213.162.079.062.151.133.24.185l.01.004.008.006 25.604 14.49v25.632L4.454 107.9V21.474zM106.938 107.9l-49.014 28.219v-25.637l36.299-20.721 12.715-7.258V107.9zm26.734-45.915l-22.279 12.826v-25.38l12.923-7.44 9.356-5.387v25.381z" fill="#ef3b2d" fill-rule="nonzero"/>
</svg>
