<?xml version="1.0" standalone="no"?><!DOCTYPE svg PUBLIC "-//W3C//DTD SVG 1.1//EN" "http://www.w3.org/Graphics/SVG/1.1/DTD/svg11.dtd"><svg width="100%" height="100%" viewBox="0 0 368 328" version="1.1" xmlns="http://www.w3.org/2000/svg" xmlns:xlink="http://www.w3.org/1999/xlink" xml:space="preserve" style="fill-rule:evenodd;clip-rule:evenodd;stroke-linejoin:round;stroke-miterlimit:1.41421;"><g><path d="M367.95,163.875c0,-24.375 -30.525,-47.475 -77.325,-61.8c10.8,-47.7 6,-85.65 -15.15,-97.8c-4.875,-2.85 -10.575,-4.2 -16.8,-4.2l0,16.725c3.45,0 6.225,0.675 8.55,1.95c10.2,5.85 14.625,28.125 11.175,56.775c-0.825,7.05 -2.175,14.475 -3.825,22.05c-14.7,-3.6 -30.75,-6.375 -47.625,-8.175c-10.125,-13.875 -20.625,-26.475 -31.2,-37.5c24.45,-22.725 47.4,-35.175 63,-35.175l0,-16.725c-20.625,0 -47.625,14.7 -74.925,40.2c-27.3,-25.35 -54.3,-39.9 -74.925,-39.9l0,16.725c15.525,0 38.55,12.375 63,34.95c-10.5,11.025 -21,23.55 -30.975,37.425c-16.95,1.8 -33,4.575 -47.7,8.25c-1.725,-7.5 -3,-14.775 -3.9,-21.75c-3.525,-28.65 0.825,-50.925 10.95,-56.85c2.25,-1.35 5.175,-1.95 8.625,-1.95l0,-16.725c-6.3,0 -12,1.35 -16.95,4.2c-21.075,12.15 -25.8,50.025 -14.925,97.575c-46.65,14.4 -77.025,37.425 -77.025,61.725c0,24.375 30.525,47.475 77.325,61.8c-10.8,47.7 -6,85.65 15.15,97.8c4.875,2.85 10.575,4.2 16.875,4.2c20.625,0 47.625,-14.7 74.925,-40.2c27.3,25.35 54.3,39.9 74.925,39.9c6.3,0 12,-1.35 16.95,-4.2c21.075,-12.15 25.8,-50.025 14.925,-97.575c46.5,-14.325 76.875,-37.425 76.875,-61.725ZM270.3,113.85c-2.775,9.675 -6.225,19.65 -10.125,29.625c-3.075,-6 -6.3,-12 -9.825,-18c-3.45,-6 -7.125,-11.85 -10.8,-17.55c10.65,1.575 20.925,3.525 30.75,5.925ZM235.95,193.725c-5.85,10.125 -11.85,19.725 -18.075,28.65c-11.175,0.975 -22.5,1.5 -33.9,1.5c-11.325,0 -22.65,-0.525 -33.75,-1.425c-6.225,-8.925 -12.3,-18.45 -18.15,-28.5c-5.7,-9.825 -10.875,-19.8 -15.6,-29.85c4.65,-10.05 9.9,-20.1 15.525,-29.925c5.85,-10.125 11.85,-19.725 18.075,-28.65c11.175,-0.975 22.5,-1.5 33.9,-1.5c11.325,0 22.65,0.525 33.75,1.425c6.225,8.925 12.3,18.45 18.15,28.5c5.7,9.825 10.875,19.8 15.6,29.85c-4.725,10.05 -9.9,20.1 -15.525,29.925ZM260.175,183.975c4.05,10.05 7.5,20.1 10.35,29.85c-9.825,2.4 -20.175,4.425 -30.9,6c3.675,-5.775 7.35,-11.7 10.8,-17.775c3.45,-6 6.675,-12.075 9.75,-18.075ZM184.125,264c-6.975,-7.2 -13.95,-15.225 -20.85,-24c6.75,0.3 13.65,0.525 20.625,0.525c7.05,0 14.025,-0.15 20.85,-0.525c-6.75,8.775 -13.725,16.8 -20.625,24ZM128.325,219.825c-10.65,-1.575 -20.925,-3.525 -30.75,-5.925c2.775,-9.675 6.225,-19.65 10.125,-29.625c3.075,6 6.3,12 9.825,18c3.525,6 7.125,11.85 10.8,17.55ZM183.75,63.75c6.975,7.2 13.95,15.225 20.85,24c-6.75,-0.3 -13.65,-0.525 -20.625,-0.525c-7.05,0 -14.025,0.15 -20.85,0.525c6.75,-8.775 13.725,-16.8 20.625,-24ZM128.25,107.925c-3.675,5.775 -7.35,11.7 -10.8,17.775c-3.45,6 -6.675,12 -9.75,18c-4.05,-10.05 -7.5,-20.1 -10.35,-29.85c9.825,-2.325 20.175,-4.35 30.9,-5.925ZM60.375,201.825c-26.55,-11.325 -43.725,-26.175 -43.725,-37.95c0,-11.775 17.175,-26.7 43.725,-37.95c6.45,-2.775 13.5,-5.25 20.775,-7.575c4.275,14.7 9.9,30 16.875,45.675c-6.9,15.6 -12.45,30.825 -16.65,45.45c-7.425,-2.325 -14.475,-4.875 -21,-7.65ZM100.725,309c-10.2,-5.85 -14.625,-28.125 -11.175,-56.775c0.825,-7.05 2.175,-14.475 3.825,-22.05c14.7,3.6 30.75,6.375 47.625,8.175c10.125,13.875 20.625,26.475 31.2,37.5c-24.45,22.725 -47.4,35.175 -63,35.175c-3.375,-0.075 -6.225,-0.75 -8.475,-2.025ZM278.625,251.85c3.525,28.65 -0.825,50.925 -10.95,56.85c-2.25,1.35 -5.175,1.95 -8.625,1.95c-15.525,0 -38.55,-12.375 -63,-34.95c10.5,-11.025 21,-23.55 30.975,-37.425c16.95,-1.8 33,-4.575 47.7,-8.25c1.725,7.575 3.075,14.85 3.9,21.825ZM307.5,201.825c-6.45,2.775 -13.5,5.25 -20.775,7.575c-4.275,-14.7 -9.9,-30 -16.875,-45.675c6.9,-15.6 12.45,-30.825 16.65,-45.45c7.425,2.325 14.475,4.875 21.075,7.65c26.55,11.325 43.725,26.175 43.725,37.95c-0.075,11.775 -17.25,26.7 -43.8,37.95Z" style="fill:#61dafb;fill-rule:nonzero;"/><circle cx="183.9" cy="163.875" r="34.275" style="fill:#61dafb;"/></g></svg>